<svg xmlns="http://www.w3.org/2000/svg" viewBox="0 0 1953.82 1672.82"><defs><style>.cls-1{fill:#fff;}.cls-2,.cls-3{fill:#db291c;}.cls-3{stroke:#db291c;stroke-width:11.58px;}</style></defs><g id="Capa_2" data-name="Capa 2"><g id="Capa_1-2" data-name="Capa 1"><path class="cls-1" d="M1906.86,1001.6c0,248.83-97.72,474.82-256.88,641.71-59.19,62.07-197.4-62.17-271.72-18.33-39.17,23.11,12.56-335.66-30-318.41-30,12.15-198.62-15.69-230.06-6.67-42.64,12.24,31.58,340.7-13.33,346.76-41,5.53-57.47,1.66-100,1.66-16.68,0-40.88-75.81-57.35-76.68-74.17-3.91-99.14,13.62-167.7-6.67-61.8-18.29-4.32,96.74-60,66.68-48-25.92-257.58,42-300.07,8.34-36-28.55-89.68,31.26-121.1-2.23C142.53,1471.43,47,1247.68,47,1001.6,47,488,463.31,71.65,976.91,71.65S1906.86,488,1906.86,1001.6Z"/><path class="cls-2" d="M1156.49,419.53c-7.14-69.43-23.62-136-58.06-200.47,7.23,4.16,12.25,6.89,17.11,9.89,5.51,3.39,11,6.88,16.3,10.58,5.05,3.52,10,7.18,14.79,11.09,49.44,40.8,76.86,93.55,84.16,156.88,2,17.69,3,35.54,3.67,53.35.24,6,2.15,9.37,7.36,12.08q36.62,19.11,72.94,38.77c9.34,5.05,20.29,9.74,19,23-1.24,13-12,18.94-22.49,21.56-27.87,7-56,13.86-84.38,17.74-43,5.86-86.3,9.6-129.55,13.41-48.32,4.25-96.44,2.8-144.41-5.59-44.31-7.74-89.07-13-133.27-21.25-59.09-11.07-117.83-24-176.72-36.15-11.29-2.33-20.38-7.92-22.71-19.82-2.36-12.09,3.59-22.18,13-28.52,9.58-6.46,11.71-14.05,11.79-24.95C646,330.07,725.18,220.78,842.53,178c52.35-19.09,106.18-22.72,160.85-13.3,30,5.17,54.71,20.6,69.3,47.16,15.51,28.24,28.86,57.87,40.71,87.85,14.73,37.26,26.95,75.52,40.29,113.33C1154.46,415.25,1155.54,417.37,1156.49,419.53ZM1289.85,533c-.08-1.48-.15-3-.23-4.44-11.27-5.55-23.17-10.11-33.69-16.83-25-16-52.38-16.62-80.55-14.79-60.49,3.93-121,8.2-181.51,10.91-53.79,2.41-107.66,2.9-161.49,4.28-1.56,0-3.1.6-6.9,1.37,25.87,7.85,49.43,14.59,72.73,22.13,52.18,16.9,105.28,27,160.41,23.69,12.31-.73,24.68-.41,37-1.48,51-4.44,101.94-8.72,152.79-14.2C1262.41,542.09,1276,536.62,1289.85,533ZM865.24,210.8c-.29.92-.57,1.85-.85,2.78,2.49,1.07,4.93,2.25,7.47,3.2A216.51,216.51,0,0,1,950.8,267c26.52,26.48,45.38,58.15,63.08,90.69,1,1.9,2.4,3.63,3.6,5.43,1.1-7.54.36-14.25-.2-21-2.84-34.18-13.68-64.44-41.3-87A174.4,174.4,0,0,0,914.4,223C898.21,218.28,881.64,214.83,865.24,210.8ZM667.79,481.58l38.36,6.4s47.31,9,60.6,10c20.18-1.82,22.35-27-2.73-27C741.13,471,667.79,481.58,667.79,481.58Z"/><g id="Capa_3" data-name="Capa 3"><path class="cls-3" d="M674.43,1166.23c-5.55-1.14-11.07-2.44-16.66-3.38a191.74,191.74,0,0,1-69.2-26.22A180.07,180.07,0,0,1,550.64,1106c-20.87-22.46-35.11-48.49-40.43-78.9-1.91-10.9-2.73-22-4.09-33.45h106.1c2.39,8.59,3.92,16.92,7,24.62,5.64,14,17.38,21.93,30.68,27.68a97,97,0,0,0,46.17,7.47c19.09-1.41,36.77-7,52.24-19.12,6.83-5.34,5.87-11.9,5.86-18.74,0-9-1.2-18.23.33-27A355,355,0,0,1,765.57,942c6.45-20.25,17.34-38.54,28.27-56.7,12.27-20.39,24.32-40.9,36.51-61.33q23.82-40,47.7-79.87c11.91-20,23.76-40,35.76-60.22h134.72l-92,154.54c31-3.45,59.57,2.15,87.4,13.71,4.81-22,11.86-43.08,22.13-62.94a207.47,207.47,0,0,1,32.8-46.68A180.89,180.89,0,0,1,1155,701.6c17-7.93,34.79-13.88,53.47-15.59,17.88-1.64,36-3.13,53.85-2a184.92,184.92,0,0,1,86.77,27.57,165.07,165.07,0,0,1,40,34,287.45,287.45,0,0,1,25.49,36.29c11.89,19.73,19.65,41.36,24.37,63.85,3.22,15.31,4.89,30.94,7.31,46.42a14.59,14.59,0,0,0,1.25,3.1v59.14a16.24,16.24,0,0,0-1.24,3.63c-.48,4.93-.43,9.94-1.21,14.82-3.72,23.1-8.54,46-17.28,67.78-9.25,23.07-21.45,44.47-38.08,63-12,13.38-25.4,25.23-40.88,34.61a187.73,187.73,0,0,1-71,25.61c-4,.58-8,1.54-12,2.33h-46.24c-.49-.41-1-1.14-1.48-1.18-18.57-1.51-36.33-6.26-53.67-13-25.12-9.71-46.37-25.07-66-44.69-3.26,3.1-6.37,6.49-9.9,9.33-17.41,14-36.26,25.56-57.17,33.65-16.8,6.5-34,11.48-51.91,13.56a97.3,97.3,0,0,0-10.41,2.29H923.88c-.67-.42-1.31-1.12-2-1.22-8.19-1.15-16.45-1.89-24.59-3.34-26.58-4.74-51.63-13.64-74-29-5.49-3.77-10.23-6.41-15.52-.07-.83,1-2.46,1.32-3.64,2.08a190.77,190.77,0,0,1-78.4,29.25c-3.86.53-7.65,1.53-11.47,2.31Zm766-244.3c-.26-3-.69-9.07-1.29-15.07-1.38-13.89-2.22-27.86-4.4-41.63a240.56,240.56,0,0,0-26.11-77.6c-12.95-23.9-29.77-44.5-51.42-60.73-32.09-24-69-34.82-108.71-35.91-13.2-.36-26.5,1.57-39.69,3.06-17.44,2-34,7.29-49.87,14.72a176.68,176.68,0,0,0-59.48,45.37c-17.08,19.82-29.22,42.26-38.16,66.61-12.25,33.39-16.11,68.21-17.1,103.46a158.31,158.31,0,0,0,1,19.69c1.35,14.06,2.09,28.27,4.64,42.13,5,27.28,13.55,53.4,27.32,77.78,13.2,23.37,30.1,43.42,51.53,59.35,31.88,23.7,68.56,34.29,107.77,35.45,15.61.46,31.52-1.44,47-4.15,40-7,73.37-26.06,100.25-56.73,17.71-20.22,30.35-43.14,39.44-68.25C1435.36,995.69,1439.37,960.58,1440.4,921.93ZM1034.6,691.2a10.69,10.69,0,0,0-1.61-.38c-36.73,0-73.45-.11-110.17.12-2,0-4.72,2.2-5.91,4.12-6.42,10.32-12.4,20.92-18.65,31.36-17.18,28.73-34.46,57.4-51.61,86.16-13,21.79-25.7,43.75-38.79,65.49-12.73,21.15-25.86,42-34.25,65.47-10,27.81-15.08,56-10.33,85.71a138,138,0,0,0,34.19,71.45c12.95,14.51,28.67,25.75,46,34.63,30.89,15.83,64.12,22.39,98.43,23.34a220.33,220.33,0,0,0,42.34-3.3,205.89,205.89,0,0,0,69.71-24.84c14.11-8.19,27.35-17.53,38.9-29.21-12.64-16.29-23.78-33.11-32.11-51.81-14.32-32.14-21.55-66-23.48-100.82-1.56-28.05-1-56.28,4.3-84.06.8-4.21-.88-5.12-3.57-6.08-7.45-2.65-14.87-5.4-22.46-7.57a140.31,140.31,0,0,0-57.82-4.36c-5.36.71-10.72,1.38-17,2.18ZM514.45,1001.77c1.35,9.07,2.27,17.49,3.91,25.76a143,143,0,0,0,32.83,66.6,181.94,181.94,0,0,0,66.91,48.71c23.88,10.19,48.82,14.82,74.49,15.91,8.6.36,17.3-1.12,25.93-2,24-2.41,46.44-9.77,67.66-20.94,7.58-4,14.66-8.92,22.24-13.59-27.12-22.67-44.41-50.32-51.84-83.9-1,.27-1.42.25-1.64.46-17.79,16.79-40,22.1-63.31,22.63-11.15.26-22.59-1.66-33.51-4.23-17.36-4.09-32.14-13.07-42.41-28.08-5.52-8.07-9.33-17-9-27.34Z"/><path class="cls-3" d="M1157,924.94c.63-24.23,3.28-48,12.31-70.7,9.65-24.21,24.14-44.44,50.27-52.55,23.12-7.18,45.52-4.28,65.18,10.46,16.49,12.37,26.23,29.73,32.42,49.13,5.51,17.26,8.8,34.9,8.67,53.1-.07,10.25.64,20.56-.16,30.76-1.45,18.67-5.14,36.9-12.66,54.27a97.61,97.61,0,0,1-22.3,32.58,67.29,67.29,0,0,1-36.89,18c-19.73,3.17-37.64-.88-53.7-12.63-13.82-10.1-23.31-23.68-29.71-39.37a160.91,160.91,0,0,1-12-55C1158.21,937,1157.47,931,1157,924.94Zm8.63.81a176.92,176.92,0,0,0,7.39,54.68c5.87,19.71,14.72,37.48,31.59,50.08,16.49,12.32,35,15.49,54.72,10.14,21.53-5.84,35-21.13,44.42-40.38,10.54-21.46,14-44.64,14.87-68.16a204.45,204.45,0,0,0-5.15-53.78c-4.88-21.23-12.91-40.79-29.28-55.72-15.69-14.31-34.27-19.73-55.31-15-26.65,6-41.48,24.73-51.39,48.42C1168.24,878.07,1165.15,901.24,1165.59,925.75Z"/><path class="cls-3" d="M862.81,1001.31c-.34-45.59,38.09-86,87.11-84.27,46.68,1.65,82.27,38,82,85-.29,47.76-36.43,84.25-85.4,84.23C900.18,1086.21,862.83,1048.85,862.81,1001.31Zm8.17.41c-.37,42.57,34.63,75.56,74.22,76.51,44,1,78.56-34.91,78.79-75.66a77.05,77.05,0,0,0-74-77.48C905.66,923.59,870.22,960.45,871,1001.72Z"/><path class="cls-2" d="M684.91,770.72H552.71V683.61h264c0,9.64.55,19.46-.15,29.2a309.68,309.68,0,0,1-4.2,31.48c-5.13,29-16,55.82-31,81.05a242.63,242.63,0,0,1-89.74,86.37A245.3,245.3,0,0,1,624,936.89a171.91,171.91,0,0,1-18.48,2.83"/></g><path class="cls-2" d="M311,1577.9c66-.26,158.12-.62,165.17-.62h78.7c11.07,0,20.29-8.68,20.29-19.1v-17.94c0-19.68-6.76-24.89-29.51-26l-111.91-4.63c-59-2.32-78.7-30.68-78.7-68.88V1327.8c0-38.2,19.68-68.88,78.7-68.88H609c59,0,78.71,30.68,78.71,68.88V1366l-113.14,20.83v-13.31c0-10.42-9.22-19.1-20.29-19.1H490.94c-11.07,0-20.29,8.68-20.29,19.1v9.84c0,20.84,8,26.05,29.51,27.21l112.52,4.63c59,2.31,78.7,31.26,78.7,69.46v119.24c0,38.21-19.67,68.88-78.7,68.88H408c-46.4,0-110-34.47-110-34.47s-53.86-15.31-53.86-34.41v-25.74l61.64-.25"/><path class="cls-2" d="M923.19,1606.81H787.92l-22.75,66H654.49l150-413.87H912.74l152.48,413.87H945.94Zm-54.11-162.08-12.91-41.1h-.62l-12.91,41.1-22.14,67.72h70.1Z"/><path class="cls-2" d="M1044.31,1672.79V1258.92h281v95.51h-165.4v60.78H1273v97.24H1159.91v160.34Z"/><path class="cls-2" d="M1316.08,1672.79V1258.92h287.15v95.51H1431.68v60.78h113.14v97.24H1431.68v64.83H1709.5v24.37l-66.1,71.14Z"/><path class="cls-2" d="M1952.82,921.23c-.06-14.46-1.77-28.79-3.17-43.15-1.77-18.05-4.21-36-7.14-53.9a981.23,981.23,0,0,0-34.9-144.29,991.42,991.42,0,0,0-164.28-308.32,954,954,0,0,0-80.5-90.33Q1510.72,131,1309.82,57.8a944.16,944.16,0,0,0-114.69-33.57c-16.57-3.73-33.18-7.27-50-9.92-12-1.91-24.07-3.82-36.14-5.5-11-1.54-22-2.87-33-4.1-6.06-.68-12.17-1-18.26-1.42C1050,2.7,1042.27,2,1034.52,1.55c-5.91-.34-11.85-.27-17.76-.58-3.66-.19-7.4.43-11-1H956.9a20.93,20.93,0,0,1-3.2.67c-3.33.19-6.66.23-10,.37-10.36.45-20.72.72-31.06,1.44S892,4.37,881.72,5.4c-7.91.79-15.83,1.5-23.71,2.53-9.15,1.2-18.28,2.64-27.4,4.1-8.93,1.43-17.84,3-26.76,4.54-15.65,2.71-31.13,6.16-46.59,9.78A963.56,963.56,0,0,0,644.9,60,991.82,991.82,0,0,0,390.41,198.15a968.56,968.56,0,0,0-361.16,544C23,767.46,17.68,793,13.59,818.74Q9.75,842.84,7,867.11c-1.64,14.52-2.64,29.11-3.74,43.68-.65,8.67-1,17.37-1.4,26.06A65.83,65.83,0,0,1,0,950v47.78a59.2,59.2,0,0,1,1.84,13.11c.23,5.73.26,11.48.66,17.2,1.35,19.2,2.8,38.39,5.06,57.51,2,16.91,4.34,33.76,7.16,50.54q5.86,35,14.39,69.51a993.95,993.95,0,0,0,201.83,398.88q29.64,35.44,62.76,68.3H409c-24.46-20.22-48.14-42.74-70.58-65.69l-2.54-2.61A911.33,911.33,0,0,1,94.16,1136.75C90.86,1118.92,88,1101,85.82,1083c-1.58-12.85-2.55-25.77-3.84-38.66-1.7-17.15-2.16-34.36-2.76-51.56-.76-21.85.13-43.69,1-65.52.25-6.29.62-12.58,1.21-18.84,1.24-13.26,2.44-26.54,4-39.76,1.72-14.13,3.58-28.26,5.94-42.3q6.43-38.31,16.28-75.9A882,882,0,0,1,178,566.43q90.09-174,244.62-294.7a908.46,908.46,0,0,1,244.5-136.82A885.6,885.6,0,0,1,771.45,103.1c19.77-4.71,39.61-9,59.68-12.21,10.94-1.76,21.87-3.7,32.85-5.14,11.55-1.5,23.15-2.63,34.75-3.7,12.34-1.13,24.7-2.18,37.07-2.93,10.35-.63,20.72-.81,31.08-1.13,19.83-.6,39.62.68,59.43,1.07q.56,0,1.11.06c12.17,1,24.34,2,36.51,2.94q19.1,1.48,38,4.4c12.78,2,25.61,3.63,38.32,6q34,6.3,67.54,15.14a888.53,888.53,0,0,1,410.78,239.89,913.75,913.75,0,0,1,225.88,393.42,812,812,0,0,1,18.38,81.1c2,11.85,3.94,23.72,5.63,35.61,1.57,11,3,22,4.08,33q1.7,16.85,2.61,33.76c.83,15.71,1.6,31.44,1.85,47.16a757.74,757.74,0,0,1-3.07,81c-1.13,12.53-2.18,25.08-3.78,37.55-1.76,13.76-4,27.45-6.24,41.14-3.83,23.56-9,46.85-15,70a896.39,896.39,0,0,1-227.51,403.29q-7,7.17-14.18,14.2-29.07,28.49-60.46,54.11c49-.58,87.34.15,116.78,0q33.3-32.73,63.2-68.3A975.3,975.3,0,0,0,1906.5,1282.1a957.7,957.7,0,0,0,29.69-112.52c4-19.95,7.53-40,10-60.16,1.58-12.67,3-25.36,4.4-38a304.89,304.89,0,0,0,2.21-33.78,43.45,43.45,0,0,1,1-6.53V928.85A60,60,0,0,1,1952.82,921.23Z"/></g></g></svg>